<svg width="415" height="56" viewBox="0 0 415 56" fill="none" xmlns="http://www.w3.org/2000/svg">

    <g id="designmodo">
        <path d="M0.761211 42V0.239998H8.18521V17.64C9.15188 16.0547 10.4472 14.8173 12.0712 13.928C13.7339 13 15.6285 12.536 17.7552 12.536C21.3125 12.536 24.0579 13.6573 25.9912 15.9C27.9632 18.1427 28.9492 21.4293 28.9492 25.76V42H21.5832V26.456C21.5832 23.9813 21.0805 22.0867 20.0752 20.772C19.1085 19.4573 17.5619 18.8 15.4352 18.8C13.3472 18.8 11.6072 19.5347 10.2152 21.004C8.86188 22.4733 8.18521 24.5227 8.18521 27.152V42H0.761211ZM39.0503 8.766C37.697 8.766 36.5757 8.36 35.6863 7.548C34.8357 6.736 34.4103 5.71133 34.4103 4.474C34.4103 3.23667 34.8357 2.23133 35.6863 1.458C36.5757 0.645998 37.697 0.239998 39.0503 0.239998C40.4037 0.239998 41.5057 0.645998 42.3563 1.458C43.2457 2.23133 43.6903 3.23667 43.6903 4.474C43.6903 5.71133 43.2457 6.736 42.3563 7.548C41.5057 8.36 40.4037 8.766 39.0503 8.766ZM35.3383 42V13.232H42.7623V42H35.3383ZM71.4352 54.296C67.1432 54.296 63.3925 53.4647 60.1832 51.802C56.9739 50.178 54.4799 47.858 52.7012 44.842C50.9225 41.8647 50.0332 38.3267 50.0332 34.228C50.0332 29.936 50.7872 25.9533 52.2952 22.28C53.8032 18.6067 55.9105 15.4167 58.6172 12.71C61.3625 9.96467 64.5719 7.838 68.2452 6.33C71.9185 4.822 75.9399 4.068 80.3092 4.068C84.7945 4.068 88.6612 4.91866 91.9092 6.62C95.1959 8.28267 97.7285 10.622 99.5072 13.638C101.286 16.654 102.175 20.134 102.175 24.078C102.175 26.398 101.866 28.66 101.247 30.864C100.667 33.0293 99.7972 34.982 98.6372 36.722C97.5159 38.4233 96.1045 39.7767 94.4032 40.782C92.7405 41.7873 90.8265 42.29 88.6612 42.29C86.6505 42.29 85.0459 41.8453 83.8472 40.956C82.6485 40.0667 81.8945 38.8487 81.5852 37.302C80.4639 38.8873 79.0139 40.144 77.2352 41.072C75.4952 41.9613 73.6199 42.406 71.6092 42.406C68.6705 42.406 66.3892 41.536 64.7652 39.796C63.1412 38.0173 62.3292 35.62 62.3292 32.604C62.3292 30.516 62.6579 28.5053 63.3152 26.572C63.9725 24.6 64.9005 22.86 66.0992 21.352C67.3365 19.8053 68.7865 18.5873 70.4492 17.698C72.1505 16.8087 74.0065 16.364 76.0172 16.364C79.6132 16.364 81.9719 17.7367 83.0932 20.482L83.7312 16.886H89.8212L87.0952 32.43C86.8632 33.938 86.9019 35.156 87.2112 36.084C87.5592 36.9733 88.3905 37.418 89.7052 37.418C90.8265 37.418 91.7932 37.0313 92.6052 36.258C93.4559 35.446 94.1519 34.402 94.6932 33.126C95.2732 31.8113 95.6985 30.4 95.9692 28.892C96.2785 27.3453 96.4332 25.8373 96.4332 24.368C96.4332 19.6507 94.9445 15.9387 91.9672 13.232C88.9899 10.4867 84.8525 9.114 79.5552 9.114C76.1139 9.114 72.9432 9.752 70.0432 11.028C67.1819 12.2653 64.6685 14.0053 62.5032 16.248C60.3765 18.4907 58.7139 21.1007 57.5152 24.078C56.3552 27.0167 55.7752 30.1873 55.7752 33.59C55.7752 38.5393 57.2445 42.3673 60.1832 45.074C63.1219 47.8193 67.1819 49.192 72.3632 49.192C74.1032 49.192 75.8239 49.018 77.5252 48.67C79.2652 48.322 80.8505 47.8193 82.2812 47.162L83.4992 51.976C79.8645 53.5227 75.8432 54.296 71.4352 54.296ZM73.9292 36.954C75.3212 36.954 76.5972 36.5673 77.7572 35.794C78.9172 35.0207 79.8645 33.9767 80.5992 32.662C81.3339 31.3087 81.7399 29.8007 81.8172 28.138C81.9332 26.3593 81.5465 24.8513 80.6572 23.614C79.8065 22.3767 78.4532 21.758 76.5972 21.758C75.0505 21.758 73.6972 22.222 72.5372 23.15C71.3772 24.078 70.4685 25.2767 69.8112 26.746C69.1539 28.1767 68.8252 29.7233 68.8252 31.386C68.8252 33.0487 69.2505 34.402 70.1012 35.446C70.9905 36.4513 72.2665 36.954 73.9292 36.954ZM109.23 54.76V13.232H115.842L116.654 17.35C117.582 16.074 118.8 14.9527 120.308 13.986C121.855 13.0193 123.846 12.536 126.282 12.536C128.989 12.536 131.405 13.1933 133.532 14.508C135.659 15.8227 137.341 17.6207 138.578 19.902C139.815 22.1833 140.434 24.774 140.434 27.674C140.434 30.574 139.815 33.1647 138.578 35.446C137.341 37.6887 135.659 39.4673 133.532 40.782C131.405 42.058 128.989 42.696 126.282 42.696C124.117 42.696 122.222 42.29 120.598 41.478C118.974 40.666 117.659 39.5253 116.654 38.056V54.76H109.23ZM124.716 36.2C127.075 36.2 129.027 35.4073 130.574 33.822C132.121 32.2367 132.894 30.1873 132.894 27.674C132.894 25.1607 132.121 23.092 130.574 21.468C129.027 19.844 127.075 19.032 124.716 19.032C122.319 19.032 120.347 19.844 118.8 21.468C117.292 23.0533 116.538 25.1027 116.538 27.616C116.538 30.1293 117.292 32.198 118.8 33.822C120.347 35.4073 122.319 36.2 124.716 36.2ZM155.984 42.696C153.509 42.696 151.479 42.3093 149.894 41.536C148.309 40.724 147.129 39.6607 146.356 38.346C145.583 37.0313 145.196 35.5813 145.196 33.996C145.196 31.328 146.24 29.1627 148.328 27.5C150.416 25.8373 153.548 25.006 157.724 25.006H165.032V24.31C165.032 22.338 164.471 20.888 163.35 19.96C162.229 19.032 160.837 18.568 159.174 18.568C157.666 18.568 156.351 18.9353 155.23 19.67C154.109 20.366 153.413 21.41 153.142 22.802H145.892C146.085 20.714 146.781 18.8967 147.98 17.35C149.217 15.8033 150.803 14.624 152.736 13.812C154.669 12.9613 156.835 12.536 159.232 12.536C163.331 12.536 166.559 13.5607 168.918 15.61C171.277 17.6593 172.456 20.5593 172.456 24.31V42H166.134L165.438 37.36C164.587 38.9067 163.389 40.1827 161.842 41.188C160.334 42.1933 158.381 42.696 155.984 42.696ZM157.666 36.896C159.793 36.896 161.436 36.2 162.596 34.808C163.795 33.416 164.549 31.6953 164.858 29.646H158.536C156.564 29.646 155.153 30.0133 154.302 30.748C153.451 31.444 153.026 32.314 153.026 33.358C153.026 34.4793 153.451 35.3493 154.302 35.968C155.153 36.5867 156.274 36.896 157.666 36.896ZM185.463 42L174.907 13.232H182.679L189.987 34.982L197.295 13.232H205.067L194.453 42H185.463ZM216.912 42.696C214.437 42.696 212.407 42.3093 210.822 41.536C209.236 40.724 208.057 39.6607 207.284 38.346C206.51 37.0313 206.124 35.5813 206.124 33.996C206.124 31.328 207.168 29.1627 209.256 27.5C211.344 25.8373 214.476 25.006 218.652 25.006H225.96V24.31C225.96 22.338 225.399 20.888 224.278 19.96C223.156 19.032 221.764 18.568 220.102 18.568C218.594 18.568 217.279 18.9353 216.158 19.67C215.036 20.366 214.34 21.41 214.07 22.802H206.82C207.013 20.714 207.709 18.8967 208.908 17.35C210.145 15.8033 211.73 14.624 213.664 13.812C215.597 12.9613 217.762 12.536 220.16 12.536C224.258 12.536 227.487 13.5607 229.846 15.61C232.204 17.6593 233.384 20.5593 233.384 24.31V42H227.062L226.366 37.36C225.515 38.9067 224.316 40.1827 222.77 41.188C221.262 42.1933 219.309 42.696 216.912 42.696ZM218.594 36.896C220.72 36.896 222.364 36.2 223.524 34.808C224.722 33.416 225.476 31.6953 225.786 29.646H219.464C217.492 29.646 216.08 30.0133 215.23 30.748C214.379 31.444 213.954 32.314 213.954 33.358C213.954 34.4793 214.379 35.3493 215.23 35.968C216.08 36.5867 217.202 36.896 218.594 36.896ZM239.468 42V13.232H246.022L246.602 18.104C247.492 16.4027 248.768 15.0493 250.43 14.044C252.132 13.0387 254.123 12.536 256.404 12.536C259.962 12.536 262.726 13.6573 264.698 15.9C266.67 18.1427 267.656 21.4293 267.656 25.76V42H260.232V26.456C260.232 23.9813 259.73 22.0867 258.724 20.772C257.719 19.4573 256.153 18.8 254.026 18.8C251.938 18.8 250.218 19.5347 248.864 21.004C247.55 22.4733 246.892 24.5227 246.892 27.152V42H239.468ZM273.755 42V13.232H280.309L280.947 17.118C281.875 15.726 283.093 14.624 284.601 13.812C286.148 12.9613 287.927 12.536 289.937 12.536C294.384 12.536 297.535 14.2567 299.391 17.698C300.435 16.1127 301.827 14.856 303.567 13.928C305.346 13 307.279 12.536 309.367 12.536C313.118 12.536 315.999 13.6573 318.009 15.9C320.02 18.1427 321.025 21.4293 321.025 25.76V42H313.601V26.456C313.601 23.9813 313.118 22.0867 312.151 20.772C311.223 19.4573 309.773 18.8 307.801 18.8C305.791 18.8 304.167 19.5347 302.929 21.004C301.731 22.4733 301.131 24.5227 301.131 27.152V42H293.707V26.456C293.707 23.9813 293.224 22.0867 292.257 20.772C291.291 19.4573 289.802 18.8 287.791 18.8C285.819 18.8 284.215 19.5347 282.977 21.004C281.779 22.4733 281.179 24.5227 281.179 27.152V42H273.755ZM339.254 33.416C337.862 33.416 336.566 33.2613 335.368 32.952L333.222 35.098C333.879 35.446 334.768 35.736 335.89 35.968C337.011 36.2 338.828 36.432 341.342 36.664C345.17 37.012 347.954 37.9207 349.694 39.39C351.434 40.8593 352.304 42.8893 352.304 45.48C352.304 47.1813 351.84 48.786 350.912 50.294C349.984 51.8407 348.553 53.078 346.62 54.006C344.686 54.9727 342.212 55.456 339.196 55.456C335.097 55.456 331.791 54.6827 329.278 53.136C326.764 51.628 325.508 49.3467 325.508 46.292C325.508 43.7013 326.764 41.4587 329.278 39.564C328.504 39.216 327.828 38.8487 327.248 38.462C326.706 38.0753 326.223 37.6693 325.798 37.244V35.91L330.844 30.574C328.601 28.602 327.48 26.0693 327.48 22.976C327.48 21.0427 327.944 19.2833 328.872 17.698C329.838 16.1127 331.192 14.856 332.932 13.928C334.672 13 336.779 12.536 339.254 12.536C340.878 12.536 342.386 12.768 343.778 13.232H354.682V17.756L349.752 18.104C350.525 19.5733 350.912 21.1973 350.912 22.976C350.912 24.9093 350.448 26.6687 349.52 28.254C348.592 29.8393 347.238 31.096 345.46 32.024C343.72 32.952 341.651 33.416 339.254 33.416ZM339.254 27.732C340.762 27.732 341.999 27.326 342.966 26.514C343.971 25.702 344.474 24.542 344.474 23.034C344.474 21.526 343.971 20.366 342.966 19.554C341.999 18.742 340.762 18.336 339.254 18.336C337.668 18.336 336.392 18.742 335.426 19.554C334.459 20.366 333.976 21.526 333.976 23.034C333.976 24.542 334.459 25.702 335.426 26.514C336.392 27.326 337.668 27.732 339.254 27.732ZM332.294 45.538C332.294 46.9687 332.951 48.032 334.266 48.728C335.619 49.4627 337.262 49.83 339.196 49.83C341.052 49.83 342.56 49.4433 343.72 48.67C344.88 47.9353 345.46 46.93 345.46 45.654C345.46 44.61 345.073 43.74 344.3 43.044C343.565 42.348 342.076 41.9227 339.834 41.768C338.248 41.652 336.779 41.478 335.426 41.246C334.304 41.8647 333.492 42.5413 332.99 43.276C332.526 44.0107 332.294 44.7647 332.294 45.538ZM362.285 42.406C360.932 42.406 359.811 41.9807 358.921 41.13C358.071 40.2793 357.645 39.2547 357.645 38.056C357.645 36.8187 358.071 35.7747 358.921 34.924C359.811 34.0733 360.932 33.648 362.285 33.648C363.639 33.648 364.741 34.0733 365.591 34.924C366.481 35.7747 366.925 36.8187 366.925 38.056C366.925 39.2547 366.481 40.2793 365.591 41.13C364.741 41.9807 363.639 42.406 362.285 42.406ZM376.031 8.766C374.677 8.766 373.556 8.36 372.667 7.548C371.816 6.736 371.391 5.71133 371.391 4.474C371.391 3.23667 371.816 2.23133 372.667 1.458C373.556 0.645998 374.677 0.239998 376.031 0.239998C377.384 0.239998 378.486 0.645998 379.337 1.458C380.226 2.23133 380.671 3.23667 380.671 4.474C380.671 5.71133 380.226 6.736 379.337 7.548C378.486 8.36 377.384 8.766 376.031 8.766ZM372.319 42V13.232H379.743V42H372.319ZM386.492 42V13.232H393.046L393.626 18.104C394.515 16.4027 395.791 15.0493 397.454 14.044C399.155 13.0387 401.146 12.536 403.428 12.536C406.985 12.536 409.75 13.6573 411.722 15.9C413.694 18.1427 414.68 21.4293 414.68 25.76V42H407.256V26.456C407.256 23.9813 406.753 22.0867 405.748 20.772C404.742 19.4573 403.176 18.8 401.05 18.8C398.962 18.8 397.241 19.5347 395.888 21.004C394.573 22.4733 393.916 24.5227 393.916 27.152V42H386.492Z" fill="url(#paint0_linear_15_2158)"/>
        <defs>
            <linearGradient id="paint0_linear_15_2158" x1="-185.287" y1="27.0002" x2="565" y2="27.0002" gradientUnits="userSpaceOnUse">
                <stop offset="0.0260229" stop-color="#13B0F5"/>
                <stop offset="1" stop-color="#E70FAA"/>
            </linearGradient>
        </defs>
    </g>

</svg>
