<svg width="457" height="19" viewBox="0 0 457 19" fill="none" xmlns="http://www.w3.org/2000/svg">

    <g id="sure">

        <path d="M11.3664 7.646C11.3664 8.93 11.1084 10.052 10.5924 11.012C10.0764 11.96 9.31435 12.698 8.30635 13.226C7.31035 13.742 6.11035 14 4.70635 14H0.674352V1.31H4.70635C6.11035 1.31 7.31035 1.568 8.30635 2.084C9.31435 2.588 10.0764 3.32 10.5924 4.28C11.1084 5.228 11.3664 6.35 11.3664 7.646ZM4.58035 12.524C6.23635 12.524 7.50235 12.098 8.37835 11.246C9.25435 10.394 9.69235 9.194 9.69235 7.646C9.69235 6.098 9.25435 4.898 8.37835 4.046C7.51435 3.182 6.24835 2.75 4.58035 2.75H2.31235V12.524H4.58035ZM22.6667 8.51C22.6667 8.858 22.6427 9.158 22.5947 9.41H14.6927C14.7287 10.538 15.0467 11.384 15.6467 11.948C16.2587 12.512 17.0027 12.794 17.8787 12.794C18.6707 12.794 19.3307 12.596 19.8587 12.2C20.3987 11.792 20.7287 11.252 20.8487 10.58H22.5947C22.4747 11.264 22.2047 11.876 21.7847 12.416C21.3767 12.956 20.8427 13.376 20.1827 13.676C19.5227 13.976 18.7787 14.126 17.9507 14.126C17.0027 14.126 16.1627 13.922 15.4307 13.514C14.6987 13.106 14.1227 12.524 13.7027 11.768C13.2947 11 13.0907 10.1 13.0907 9.068C13.0907 8.036 13.2947 7.136 13.7027 6.368C14.1227 5.6 14.6987 5.012 15.4307 4.604C16.1627 4.196 17.0027 3.992 17.9507 3.992C18.9107 3.992 19.7447 4.196 20.4527 4.604C21.1727 5.012 21.7187 5.558 22.0907 6.242C22.4747 6.926 22.6667 7.682 22.6667 8.51ZM21.0107 8.618C21.0467 7.886 20.9267 7.274 20.6507 6.782C20.3747 6.29 19.9967 5.924 19.5167 5.684C19.0367 5.444 18.5147 5.324 17.9507 5.324C17.0507 5.324 16.2947 5.606 15.6827 6.17C15.0707 6.722 14.7407 7.538 14.6927 8.618H21.0107ZM27.9051 3.992C29.0211 3.992 29.9151 4.286 30.5871 4.874C31.2711 5.45 31.6851 6.23 31.8291 7.214H30.2631C30.1911 6.626 29.9451 6.146 29.5251 5.774C29.1171 5.39 28.5651 5.198 27.8691 5.198C27.2811 5.198 26.8191 5.342 26.4831 5.63C26.1591 5.906 25.9971 6.284 25.9971 6.764C25.9971 7.124 26.1051 7.418 26.3211 7.646C26.5491 7.862 26.8251 8.03 27.1491 8.15C27.4851 8.258 27.9411 8.378 28.5171 8.51C29.2491 8.678 29.8371 8.852 30.2811 9.032C30.7371 9.2 31.1211 9.476 31.4331 9.86C31.7571 10.244 31.9191 10.76 31.9191 11.408C31.9191 12.212 31.6131 12.866 31.0011 13.37C30.4011 13.874 29.5971 14.126 28.5891 14.126C27.4131 14.126 26.4531 13.844 25.7091 13.28C24.9651 12.716 24.5271 11.93 24.3951 10.922H25.9791C26.0391 11.522 26.2971 12.008 26.7531 12.38C27.2211 12.752 27.8331 12.938 28.5891 12.938C29.1531 12.938 29.5911 12.794 29.9031 12.506C30.2271 12.218 30.3891 11.84 30.3891 11.372C30.3891 10.988 30.2751 10.682 30.0471 10.454C29.8191 10.226 29.5371 10.052 29.2011 9.932C28.8651 9.812 28.4031 9.686 27.8151 9.554C27.0831 9.386 26.4951 9.218 26.0511 9.05C25.6191 8.882 25.2471 8.618 24.9351 8.258C24.6351 7.886 24.4851 7.388 24.4851 6.764C24.4851 5.936 24.7911 5.27 25.4031 4.766C26.0151 4.25 26.8491 3.992 27.9051 3.992ZM33.8199 1.22C33.8199 0.92 33.9219 0.679999 34.1259 0.499999C34.3299 0.307999 34.5999 0.211999 34.9359 0.211999C35.2719 0.211999 35.5419 0.307999 35.7459 0.499999C35.9499 0.679999 36.0519 0.92 36.0519 1.22C36.0519 1.52 35.9499 1.766 35.7459 1.958C35.5419 2.138 35.2719 2.228 34.9359 2.228C34.5999 2.228 34.3299 2.138 34.1259 1.958C33.9219 1.766 33.8199 1.52 33.8199 1.22ZM35.7459 4.118V14H34.1079V4.118H35.7459ZM42.4294 3.992C43.3894 3.992 44.1994 4.232 44.8594 4.712C45.5314 5.192 45.9994 5.834 46.2634 6.638V4.118H47.9014V14.162C47.9014 15.074 47.7094 15.884 47.3254 16.592C46.9414 17.3 46.4014 17.852 45.7054 18.248C45.0094 18.644 44.1994 18.842 43.2754 18.842C41.9434 18.842 40.8574 18.518 40.0174 17.87C39.1774 17.234 38.6434 16.37 38.4154 15.278H40.0354C40.2274 15.938 40.5874 16.454 41.1154 16.826C41.6554 17.21 42.3454 17.402 43.1854 17.402C44.0734 17.402 44.8054 17.114 45.3814 16.538C45.9694 15.974 46.2634 15.182 46.2634 14.162V11.48C45.9994 12.284 45.5314 12.926 44.8594 13.406C44.1994 13.886 43.3894 14.126 42.4294 14.126C41.5534 14.126 40.7734 13.922 40.0894 13.514C39.4054 13.106 38.8654 12.524 38.4694 11.768C38.0854 11 37.8934 10.1 37.8934 9.068C37.8934 8.036 38.0854 7.136 38.4694 6.368C38.8654 5.6 39.4054 5.012 40.0894 4.604C40.7734 4.196 41.5534 3.992 42.4294 3.992ZM42.8974 5.45C41.8894 5.45 41.0794 5.774 40.4674 6.422C39.8674 7.058 39.5674 7.94 39.5674 9.068C39.5674 10.196 39.8674 11.084 40.4674 11.732C41.0794 12.368 41.8894 12.686 42.8974 12.686C43.5454 12.686 44.1214 12.536 44.6254 12.236C45.1414 11.936 45.5434 11.516 45.8314 10.976C46.1194 10.424 46.2634 9.788 46.2634 9.068C46.2634 8.348 46.1194 7.712 45.8314 7.16C45.5434 6.608 45.1414 6.188 44.6254 5.9C44.1214 5.6 43.5454 5.45 42.8974 5.45ZM55.7103 3.956C56.8623 3.956 57.7923 4.328 58.5003 5.072C59.2083 5.804 59.5623 6.866 59.5623 8.258V14H57.9243V8.402C57.9243 7.418 57.6723 6.662 57.1683 6.134C56.6643 5.606 55.9803 5.342 55.1163 5.342C54.2163 5.342 53.4963 5.636 52.9563 6.224C52.4163 6.8 52.1463 7.646 52.1463 8.762V14H50.5083V4.118H52.1463V6.458C52.3983 5.654 52.8423 5.036 53.4783 4.604C54.1263 4.172 54.8703 3.956 55.7103 3.956ZM71.1647 8.51C71.1647 8.858 71.1407 9.158 71.0927 9.41H63.1907C63.2267 10.538 63.5447 11.384 64.1447 11.948C64.7567 12.512 65.5007 12.794 66.3767 12.794C67.1687 12.794 67.8287 12.596 68.3567 12.2C68.8967 11.792 69.2267 11.252 69.3467 10.58H71.0927C70.9727 11.264 70.7027 11.876 70.2827 12.416C69.8747 12.956 69.3407 13.376 68.6807 13.676C68.0207 13.976 67.2767 14.126 66.4487 14.126C65.5007 14.126 64.6607 13.922 63.9287 13.514C63.1967 13.106 62.6207 12.524 62.2007 11.768C61.7927 11 61.5887 10.1 61.5887 9.068C61.5887 8.036 61.7927 7.136 62.2007 6.368C62.6207 5.6 63.1967 5.012 63.9287 4.604C64.6607 4.196 65.5007 3.992 66.4487 3.992C67.4087 3.992 68.2427 4.196 68.9507 4.604C69.6707 5.012 70.2167 5.558 70.5887 6.242C70.9727 6.926 71.1647 7.682 71.1647 8.51ZM69.5087 8.618C69.5447 7.886 69.4247 7.274 69.1487 6.782C68.8727 6.29 68.4947 5.924 68.0147 5.684C67.5347 5.444 67.0127 5.324 66.4487 5.324C65.5487 5.324 64.7927 5.606 64.1807 6.17C63.5687 6.722 63.2387 7.538 63.1907 8.618H69.5087ZM77.3572 3.992C78.3172 3.992 79.1272 4.232 79.7872 4.712C80.4592 5.192 80.9272 5.834 81.1912 6.638V0.68H82.8292V14H81.1912V11.48C80.9272 12.284 80.4592 12.926 79.7872 13.406C79.1272 13.886 78.3172 14.126 77.3572 14.126C76.4812 14.126 75.7012 13.922 75.0172 13.514C74.3332 13.106 73.7932 12.524 73.3972 11.768C73.0132 11 72.8212 10.1 72.8212 9.068C72.8212 8.036 73.0132 7.136 73.3972 6.368C73.7932 5.6 74.3332 5.012 75.0172 4.604C75.7012 4.196 76.4812 3.992 77.3572 3.992ZM77.8252 5.45C76.8172 5.45 76.0072 5.774 75.3952 6.422C74.7952 7.058 74.4952 7.94 74.4952 9.068C74.4952 10.196 74.7952 11.084 75.3952 11.732C76.0072 12.368 76.8172 12.686 77.8252 12.686C78.4732 12.686 79.0492 12.536 79.5532 12.236C80.0692 11.936 80.4712 11.516 80.7592 10.976C81.0472 10.424 81.1912 9.788 81.1912 9.068C81.1912 8.348 81.0472 7.712 80.7592 7.16C80.4712 6.608 80.0692 6.188 79.5532 5.9C79.0492 5.6 78.4732 5.45 77.8252 5.45ZM93.9333 3.992C94.8933 3.992 95.7033 4.232 96.3633 4.712C97.0353 5.192 97.5033 5.834 97.7673 6.638V4.118H99.4053V14H97.7673V11.48C97.5033 12.284 97.0353 12.926 96.3633 13.406C95.7033 13.886 94.8933 14.126 93.9333 14.126C93.0573 14.126 92.2773 13.922 91.5933 13.514C90.9093 13.106 90.3693 12.524 89.9733 11.768C89.5893 11 89.3973 10.1 89.3973 9.068C89.3973 8.036 89.5893 7.136 89.9733 6.368C90.3693 5.6 90.9093 5.012 91.5933 4.604C92.2773 4.196 93.0573 3.992 93.9333 3.992ZM94.4013 5.45C93.3933 5.45 92.5833 5.774 91.9713 6.422C91.3713 7.058 91.0713 7.94 91.0713 9.068C91.0713 10.196 91.3713 11.084 91.9713 11.732C92.5833 12.368 93.3933 12.686 94.4013 12.686C95.0493 12.686 95.6253 12.536 96.1293 12.236C96.6453 11.936 97.0473 11.516 97.3353 10.976C97.6233 10.424 97.7673 9.788 97.7673 9.068C97.7673 8.348 97.6233 7.712 97.3353 7.16C97.0473 6.608 96.6453 6.188 96.1293 5.9C95.6253 5.6 95.0493 5.45 94.4013 5.45ZM107.214 3.956C108.366 3.956 109.296 4.328 110.004 5.072C110.712 5.804 111.066 6.866 111.066 8.258V14H109.428V8.402C109.428 7.418 109.176 6.662 108.672 6.134C108.168 5.606 107.484 5.342 106.62 5.342C105.72 5.342 105 5.636 104.46 6.224C103.92 6.8 103.65 7.646 103.65 8.762V14H102.012V4.118H103.65V6.458C103.902 5.654 104.346 5.036 104.982 4.604C105.63 4.172 106.374 3.956 107.214 3.956ZM117.629 3.992C118.589 3.992 119.399 4.232 120.059 4.712C120.731 5.192 121.199 5.834 121.463 6.638V0.68H123.101V14H121.463V11.48C121.199 12.284 120.731 12.926 120.059 13.406C119.399 13.886 118.589 14.126 117.629 14.126C116.753 14.126 115.973 13.922 115.289 13.514C114.605 13.106 114.065 12.524 113.669 11.768C113.285 11 113.093 10.1 113.093 9.068C113.093 8.036 113.285 7.136 113.669 6.368C114.065 5.6 114.605 5.012 115.289 4.604C115.973 4.196 116.753 3.992 117.629 3.992ZM118.097 5.45C117.089 5.45 116.279 5.774 115.667 6.422C115.067 7.058 114.767 7.94 114.767 9.068C114.767 10.196 115.067 11.084 115.667 11.732C116.279 12.368 117.089 12.686 118.097 12.686C118.745 12.686 119.321 12.536 119.825 12.236C120.341 11.936 120.743 11.516 121.031 10.976C121.319 10.424 121.463 9.788 121.463 9.068C121.463 8.348 121.319 7.712 121.031 7.16C120.743 6.608 120.341 6.188 119.825 5.9C119.321 5.6 118.745 5.45 118.097 5.45ZM135.609 3.992C136.485 3.992 137.265 4.196 137.949 4.604C138.633 5.012 139.167 5.6 139.551 6.368C139.947 7.136 140.145 8.036 140.145 9.068C140.145 10.1 139.947 11 139.551 11.768C139.167 12.524 138.633 13.106 137.949 13.514C137.265 13.922 136.485 14.126 135.609 14.126C134.649 14.126 133.833 13.886 133.161 13.406C132.501 12.914 132.045 12.272 131.793 11.48V14H130.155V0.68H131.793V6.638C132.045 5.846 132.501 5.21 133.161 4.73C133.833 4.238 134.649 3.992 135.609 3.992ZM135.141 5.45C134.505 5.45 133.929 5.6 133.413 5.9C132.897 6.188 132.495 6.608 132.207 7.16C131.919 7.712 131.775 8.348 131.775 9.068C131.775 9.788 131.919 10.424 132.207 10.976C132.495 11.516 132.897 11.936 133.413 12.236C133.929 12.536 134.505 12.686 135.141 12.686C136.161 12.686 136.971 12.368 137.571 11.732C138.183 11.084 138.489 10.196 138.489 9.068C138.489 7.94 138.183 7.058 137.571 6.422C136.971 5.774 136.161 5.45 135.141 5.45ZM151.068 4.118V14H149.43V11.678C149.178 12.482 148.728 13.1 148.08 13.532C147.444 13.952 146.7 14.162 145.848 14.162C144.708 14.162 143.784 13.796 143.076 13.064C142.368 12.32 142.014 11.258 142.014 9.878V4.118H143.652V9.716C143.652 10.7 143.904 11.462 144.408 12.002C144.912 12.53 145.596 12.794 146.46 12.794C147.36 12.794 148.08 12.506 148.62 11.93C149.16 11.342 149.43 10.49 149.43 9.374V4.118H151.068ZM153.404 1.22C153.404 0.92 153.506 0.679999 153.71 0.499999C153.914 0.307999 154.184 0.211999 154.52 0.211999C154.856 0.211999 155.126 0.307999 155.33 0.499999C155.534 0.679999 155.636 0.92 155.636 1.22C155.636 1.52 155.534 1.766 155.33 1.958C155.126 2.138 154.856 2.228 154.52 2.228C154.184 2.228 153.914 2.138 153.71 1.958C153.506 1.766 153.404 1.52 153.404 1.22ZM155.33 4.118V14H153.692V4.118H155.33ZM159.601 0.68V14H157.963V0.68H159.601ZM166.951 12.56V14H165.727C164.719 14 163.963 13.76 163.459 13.28C162.967 12.8 162.721 11.996 162.721 10.868V5.54H161.245V4.118H162.721V1.652H164.377V4.118H166.933V5.54H164.377V10.904C164.377 11.54 164.491 11.978 164.719 12.218C164.959 12.446 165.367 12.56 165.943 12.56H166.951ZM178.851 3.992C179.727 3.992 180.507 4.196 181.191 4.604C181.875 5.012 182.409 5.6 182.793 6.368C183.189 7.136 183.387 8.036 183.387 9.068C183.387 10.1 183.189 11 182.793 11.768C182.409 12.524 181.875 13.106 181.191 13.514C180.507 13.922 179.727 14.126 178.851 14.126C177.891 14.126 177.075 13.886 176.403 13.406C175.743 12.914 175.287 12.272 175.035 11.48V14H173.397V0.68H175.035V6.638C175.287 5.846 175.743 5.21 176.403 4.73C177.075 4.238 177.891 3.992 178.851 3.992ZM178.383 5.45C177.747 5.45 177.171 5.6 176.655 5.9C176.139 6.188 175.737 6.608 175.449 7.16C175.161 7.712 175.017 8.348 175.017 9.068C175.017 9.788 175.161 10.424 175.449 10.976C175.737 11.516 176.139 11.936 176.655 12.236C177.171 12.536 177.747 12.686 178.383 12.686C179.403 12.686 180.213 12.368 180.813 11.732C181.425 11.084 181.731 10.196 181.731 9.068C181.731 7.94 181.425 7.058 180.813 6.422C180.213 5.774 179.403 5.45 178.383 5.45ZM186.21 4.118L189.414 11.894L192.384 4.118H194.202L188.334 18.68H186.48L188.532 13.838L184.374 4.118H186.21ZM308.328 4.118L305.484 14H303.72L301.002 5.954L298.266 14H296.484L293.676 4.118H295.332L297.438 12.434L300.174 4.118H301.884L304.638 12.416L306.762 4.118H308.328ZM309.568 1.22C309.568 0.92 309.67 0.679999 309.874 0.499999C310.078 0.307999 310.348 0.211999 310.684 0.211999C311.02 0.211999 311.29 0.307999 311.494 0.499999C311.698 0.679999 311.8 0.92 311.8 1.22C311.8 1.52 311.698 1.766 311.494 1.958C311.29 2.138 311.02 2.228 310.684 2.228C310.348 2.228 310.078 2.138 309.874 1.958C309.67 1.766 309.568 1.52 309.568 1.22ZM311.494 4.118V14H309.856V4.118H311.494ZM318.843 12.56V14H317.619C316.611 14 315.855 13.76 315.351 13.28C314.859 12.8 314.613 11.996 314.613 10.868V5.54H313.137V4.118H314.613V1.652H316.269V4.118H318.825V5.54H316.269V10.904C316.269 11.54 316.383 11.978 316.611 12.218C316.851 12.446 317.259 12.56 317.835 12.56H318.843ZM326.044 3.956C327.196 3.956 328.126 4.328 328.834 5.072C329.542 5.804 329.896 6.866 329.896 8.258V14H328.258V8.402C328.258 7.418 328.006 6.662 327.502 6.134C326.998 5.606 326.314 5.342 325.45 5.342C324.55 5.342 323.83 5.636 323.29 6.224C322.75 6.8 322.48 7.646 322.48 8.762V14H320.842V0.68H322.48V6.458C322.732 5.654 323.176 5.036 323.812 4.604C324.46 4.172 325.204 3.956 326.044 3.956ZM391.334 14L388.562 10.94C388.562 11.132 388.526 11.372 388.454 11.66C388.322 12.392 387.968 12.986 387.392 13.442C386.816 13.898 386.12 14.126 385.304 14.126C384.56 14.126 383.9 13.97 383.324 13.658C382.748 13.334 382.298 12.89 381.974 12.326C381.65 11.75 381.488 11.09 381.488 10.346C381.488 9.602 381.632 8.96 381.92 8.42C382.22 7.868 382.616 7.454 383.108 7.178C383.6 6.89 384.146 6.746 384.746 6.746C384.842 6.746 384.974 6.758 385.142 6.782L384.872 6.44C384.536 6.032 384.278 5.648 384.098 5.288C383.93 4.916 383.846 4.484 383.846 3.992C383.846 3.5 383.966 3.044 384.206 2.624C384.458 2.192 384.83 1.844 385.322 1.58C385.814 1.316 386.402 1.184 387.086 1.184C388.118 1.184 388.904 1.442 389.444 1.958C389.996 2.474 390.32 3.122 390.416 3.902C390.488 4.166 390.524 4.436 390.524 4.712C390.524 4.832 390.518 4.922 390.506 4.982H388.958C388.97 4.898 388.97 4.802 388.958 4.694C388.958 4.574 388.958 4.49 388.958 4.442C388.946 3.842 388.778 3.38 388.454 3.056C388.13 2.72 387.68 2.552 387.104 2.552C386.576 2.552 386.156 2.708 385.844 3.02C385.544 3.332 385.394 3.71 385.394 4.154C385.394 4.526 385.46 4.844 385.592 5.108C385.736 5.372 385.964 5.684 386.276 6.044L393.008 14H391.334ZM385.304 12.722C385.964 12.722 386.504 12.512 386.924 12.092C387.356 11.672 387.572 11.132 387.572 10.472C387.572 10.016 387.452 9.602 387.212 9.23C386.972 8.858 386.66 8.564 386.276 8.348C385.892 8.132 385.49 8.024 385.07 8.024C384.446 8.024 383.93 8.222 383.522 8.618C383.126 9.014 382.928 9.578 382.928 10.31C382.928 11.054 383.156 11.642 383.612 12.074C384.068 12.506 384.632 12.722 385.304 12.722Z" fill="#A7A7A7"/>
        <path d="M201.789 8.888V14H200.151V1.31H204.183C205.635 1.31 206.721 1.652 207.441 2.336C208.161 3.008 208.521 3.932 208.521 5.108C208.521 6.296 208.149 7.226 207.405 7.898C206.661 8.558 205.587 8.888 204.183 8.888H201.789ZM204.039 7.52C205.035 7.52 205.749 7.31 206.181 6.89C206.625 6.47 206.847 5.876 206.847 5.108C206.847 4.316 206.625 3.716 206.181 3.308C205.749 2.888 205.035 2.678 204.039 2.678H201.789V7.52H204.039ZM214.484 3.992C215.444 3.992 216.254 4.232 216.914 4.712C217.586 5.192 218.054 5.834 218.318 6.638V4.118H219.956V14H218.318V11.48C218.054 12.284 217.586 12.926 216.914 13.406C216.254 13.886 215.444 14.126 214.484 14.126C213.608 14.126 212.828 13.922 212.144 13.514C211.46 13.106 210.92 12.524 210.524 11.768C210.14 11 209.948 10.1 209.948 9.068C209.948 8.036 210.14 7.136 210.524 6.368C210.92 5.6 211.46 5.012 212.144 4.604C212.828 4.196 213.608 3.992 214.484 3.992ZM214.952 5.45C213.944 5.45 213.134 5.774 212.522 6.422C211.922 7.058 211.622 7.94 211.622 9.068C211.622 10.196 211.922 11.084 212.522 11.732C213.134 12.368 213.944 12.686 214.952 12.686C215.6 12.686 216.176 12.536 216.68 12.236C217.196 11.936 217.598 11.516 217.886 10.976C218.174 10.424 218.318 9.788 218.318 9.068C218.318 8.348 218.174 7.712 217.886 7.16C217.598 6.608 217.196 6.188 216.68 5.9C216.176 5.6 215.6 5.45 214.952 5.45ZM226.397 12.254L229.457 4.118H231.221L227.351 14H225.407L221.537 4.118H223.301L226.397 12.254ZM236.879 3.992C237.839 3.992 238.649 4.232 239.309 4.712C239.981 5.192 240.449 5.834 240.713 6.638V4.118H242.351V14H240.713V11.48C240.449 12.284 239.981 12.926 239.309 13.406C238.649 13.886 237.839 14.126 236.879 14.126C236.003 14.126 235.223 13.922 234.539 13.514C233.855 13.106 233.315 12.524 232.919 11.768C232.535 11 232.343 10.1 232.343 9.068C232.343 8.036 232.535 7.136 232.919 6.368C233.315 5.6 233.855 5.012 234.539 4.604C235.223 4.196 236.003 3.992 236.879 3.992ZM237.347 5.45C236.339 5.45 235.529 5.774 234.917 6.422C234.317 7.058 234.017 7.94 234.017 9.068C234.017 10.196 234.317 11.084 234.917 11.732C235.529 12.368 236.339 12.686 237.347 12.686C237.995 12.686 238.571 12.536 239.075 12.236C239.591 11.936 239.993 11.516 240.281 10.976C240.569 10.424 240.713 9.788 240.713 9.068C240.713 8.348 240.569 7.712 240.281 7.16C239.993 6.608 239.591 6.188 239.075 5.9C238.571 5.6 237.995 5.45 237.347 5.45ZM250.16 3.956C251.312 3.956 252.242 4.328 252.95 5.072C253.658 5.804 254.012 6.866 254.012 8.258V14H252.374V8.402C252.374 7.418 252.122 6.662 251.618 6.134C251.114 5.606 250.43 5.342 249.566 5.342C248.666 5.342 247.946 5.636 247.406 6.224C246.866 6.8 246.596 7.646 246.596 8.762V14H244.958V4.118H246.596V6.458C246.848 5.654 247.292 5.036 247.928 4.604C248.576 4.172 249.32 3.956 250.16 3.956ZM273.679 1.526V14H272.041V4.046L268.063 14H266.605L262.609 4.082V14H260.971V1.526H262.933L267.361 12.002L271.717 1.526H273.679ZM282.059 1.184C283.535 1.184 284.771 1.55 285.767 2.282C286.775 3.014 287.453 4.01 287.801 5.27H286.073C285.773 4.502 285.269 3.884 284.561 3.416C283.865 2.948 283.037 2.714 282.077 2.714C281.213 2.714 280.439 2.918 279.755 3.326C279.071 3.722 278.531 4.292 278.135 5.036C277.751 5.78 277.559 6.656 277.559 7.664C277.559 8.696 277.757 9.59 278.153 10.346C278.549 11.09 279.095 11.666 279.791 12.074C280.499 12.47 281.309 12.668 282.221 12.668C283.001 12.668 283.715 12.5 284.363 12.164C285.011 11.828 285.539 11.342 285.947 10.706C286.367 10.058 286.619 9.302 286.703 8.438H281.717V7.214H288.089V8.726C287.981 9.734 287.669 10.646 287.153 11.462C286.637 12.278 285.941 12.926 285.065 13.406C284.189 13.886 283.193 14.126 282.077 14.126C280.853 14.126 279.773 13.856 278.837 13.316C277.901 12.764 277.169 12.002 276.641 11.03C276.125 10.046 275.867 8.924 275.867 7.664C275.867 6.404 276.125 5.288 276.641 4.316C277.169 3.332 277.901 2.564 278.837 2.012C279.773 1.46 280.847 1.184 282.059 1.184ZM338.494 12.722H342.994V14H336.856V1.31H338.494V12.722ZM349.143 3.992C350.091 3.992 350.937 4.196 351.681 4.604C352.437 5.012 353.025 5.6 353.445 6.368C353.877 7.136 354.093 8.036 354.093 9.068C354.093 10.1 353.877 11 353.445 11.768C353.025 12.524 352.437 13.106 351.681 13.514C350.937 13.922 350.091 14.126 349.143 14.126C348.195 14.126 347.343 13.922 346.587 13.514C345.843 13.106 345.255 12.524 344.823 11.768C344.391 11 344.175 10.1 344.175 9.068C344.175 8.036 344.391 7.136 344.823 6.368C345.255 5.6 345.843 5.012 346.587 4.604C347.343 4.196 348.195 3.992 349.143 3.992ZM349.143 5.432C348.555 5.432 348.009 5.564 347.505 5.828C347.013 6.092 346.611 6.5 346.299 7.052C345.999 7.592 345.849 8.264 345.849 9.068C345.849 9.86 345.999 10.532 346.299 11.084C346.611 11.624 347.013 12.026 347.505 12.29C348.009 12.554 348.555 12.686 349.143 12.686C349.731 12.686 350.271 12.554 350.763 12.29C351.267 12.026 351.669 11.624 351.969 11.084C352.281 10.532 352.437 9.86 352.437 9.068C352.437 8.264 352.281 7.592 351.969 7.052C351.669 6.5 351.267 6.092 350.763 5.828C350.271 5.564 349.731 5.432 349.143 5.432ZM360.061 12.254L363.121 4.118H364.885L361.015 14H359.071L355.201 4.118H356.965L360.061 12.254ZM375.583 8.51C375.583 8.858 375.559 9.158 375.511 9.41H367.609C367.645 10.538 367.963 11.384 368.563 11.948C369.175 12.512 369.919 12.794 370.795 12.794C371.587 12.794 372.247 12.596 372.775 12.2C373.315 11.792 373.645 11.252 373.765 10.58H375.511C375.391 11.264 375.121 11.876 374.701 12.416C374.293 12.956 373.759 13.376 373.099 13.676C372.439 13.976 371.695 14.126 370.867 14.126C369.919 14.126 369.079 13.922 368.347 13.514C367.615 13.106 367.039 12.524 366.619 11.768C366.211 11 366.007 10.1 366.007 9.068C366.007 8.036 366.211 7.136 366.619 6.368C367.039 5.6 367.615 5.012 368.347 4.604C369.079 4.196 369.919 3.992 370.867 3.992C371.827 3.992 372.661 4.196 373.369 4.604C374.089 5.012 374.635 5.558 375.007 6.242C375.391 6.926 375.583 7.682 375.583 8.51ZM373.927 8.618C373.963 7.886 373.843 7.274 373.567 6.782C373.291 6.29 372.913 5.924 372.433 5.684C371.953 5.444 371.431 5.324 370.867 5.324C369.967 5.324 369.211 5.606 368.599 6.17C367.987 6.722 367.657 7.538 367.609 8.618H373.927ZM404.505 1.184C406.053 1.184 407.331 1.568 408.339 2.336C409.347 3.092 410.043 4.13 410.427 5.45H408.699C408.375 4.61 407.853 3.944 407.133 3.452C406.413 2.948 405.531 2.696 404.487 2.696C403.659 2.696 402.915 2.9 402.255 3.308C401.607 3.704 401.091 4.28 400.707 5.036C400.335 5.78 400.149 6.656 400.149 7.664C400.149 8.66 400.335 9.53 400.707 10.274C401.091 11.018 401.607 11.594 402.255 12.002C402.915 12.398 403.659 12.596 404.487 12.596C405.531 12.596 406.413 12.35 407.133 11.858C407.853 11.354 408.375 10.682 408.699 9.842H410.427C410.043 11.162 409.347 12.206 408.339 12.974C407.331 13.73 406.053 14.108 404.505 14.108C403.317 14.108 402.267 13.838 401.355 13.298C400.443 12.746 399.729 11.984 399.213 11.012C398.709 10.028 398.457 8.912 398.457 7.664C398.457 6.404 398.709 5.282 399.213 4.298C399.729 3.314 400.443 2.552 401.355 2.012C402.267 1.46 403.317 1.184 404.505 1.184ZM417.1 3.992C418.048 3.992 418.894 4.196 419.638 4.604C420.394 5.012 420.982 5.6 421.402 6.368C421.834 7.136 422.05 8.036 422.05 9.068C422.05 10.1 421.834 11 421.402 11.768C420.982 12.524 420.394 13.106 419.638 13.514C418.894 13.922 418.048 14.126 417.1 14.126C416.152 14.126 415.3 13.922 414.544 13.514C413.8 13.106 413.212 12.524 412.78 11.768C412.348 11 412.132 10.1 412.132 9.068C412.132 8.036 412.348 7.136 412.78 6.368C413.212 5.6 413.8 5.012 414.544 4.604C415.3 4.196 416.152 3.992 417.1 3.992ZM417.1 5.432C416.512 5.432 415.966 5.564 415.462 5.828C414.97 6.092 414.568 6.5 414.256 7.052C413.956 7.592 413.806 8.264 413.806 9.068C413.806 9.86 413.956 10.532 414.256 11.084C414.568 11.624 414.97 12.026 415.462 12.29C415.966 12.554 416.512 12.686 417.1 12.686C417.688 12.686 418.228 12.554 418.72 12.29C419.224 12.026 419.626 11.624 419.926 11.084C420.238 10.532 420.394 9.86 420.394 9.068C420.394 8.264 420.238 7.592 419.926 7.052C419.626 6.5 419.224 6.092 418.72 5.828C418.228 5.564 417.688 5.432 417.1 5.432ZM428.558 1.778C427.682 1.766 427.07 1.916 426.722 2.228C426.386 2.54 426.218 3.08 426.218 3.848V4.118H428.558V5.558H426.218V14H424.58V5.558H423.158V4.118H424.58V3.722C424.58 1.358 425.906 0.23 428.558 0.337999V1.778ZM434.71 1.778C433.834 1.766 433.222 1.916 432.874 2.228C432.538 2.54 432.37 3.08 432.37 3.848V4.118H434.71V5.558H432.37V14H430.732V5.558H429.31V4.118H430.732V3.722C430.732 1.358 432.058 0.23 434.71 0.337999V1.778ZM445.579 8.51C445.579 8.858 445.555 9.158 445.507 9.41H437.605C437.641 10.538 437.959 11.384 438.559 11.948C439.171 12.512 439.915 12.794 440.791 12.794C441.583 12.794 442.243 12.596 442.771 12.2C443.311 11.792 443.641 11.252 443.761 10.58H445.507C445.387 11.264 445.117 11.876 444.697 12.416C444.289 12.956 443.755 13.376 443.095 13.676C442.435 13.976 441.691 14.126 440.863 14.126C439.915 14.126 439.075 13.922 438.343 13.514C437.611 13.106 437.035 12.524 436.615 11.768C436.207 11 436.003 10.1 436.003 9.068C436.003 8.036 436.207 7.136 436.615 6.368C437.035 5.6 437.611 5.012 438.343 4.604C439.075 4.196 439.915 3.992 440.863 3.992C441.823 3.992 442.657 4.196 443.365 4.604C444.085 5.012 444.631 5.558 445.003 6.242C445.387 6.926 445.579 7.682 445.579 8.51ZM443.923 8.618C443.959 7.886 443.839 7.274 443.563 6.782C443.287 6.29 442.909 5.924 442.429 5.684C441.949 5.444 441.427 5.324 440.863 5.324C439.963 5.324 439.207 5.606 438.595 6.17C437.983 6.722 437.653 7.538 437.605 8.618H443.923ZM456.811 8.51C456.811 8.858 456.787 9.158 456.739 9.41H448.837C448.873 10.538 449.191 11.384 449.791 11.948C450.403 12.512 451.147 12.794 452.023 12.794C452.815 12.794 453.475 12.596 454.003 12.2C454.543 11.792 454.873 11.252 454.993 10.58H456.739C456.619 11.264 456.349 11.876 455.929 12.416C455.521 12.956 454.987 13.376 454.327 13.676C453.667 13.976 452.923 14.126 452.095 14.126C451.147 14.126 450.307 13.922 449.575 13.514C448.843 13.106 448.267 12.524 447.847 11.768C447.439 11 447.235 10.1 447.235 9.068C447.235 8.036 447.439 7.136 447.847 6.368C448.267 5.6 448.843 5.012 449.575 4.604C450.307 4.196 451.147 3.992 452.095 3.992C453.055 3.992 453.889 4.196 454.597 4.604C455.317 5.012 455.863 5.558 456.235 6.242C456.619 6.926 456.811 7.682 456.811 8.51ZM455.155 8.618C455.191 7.886 455.071 7.274 454.795 6.782C454.519 6.29 454.141 5.924 453.661 5.684C453.181 5.444 452.659 5.324 452.095 5.324C451.195 5.324 450.439 5.606 449.827 6.17C449.215 6.722 448.885 7.538 448.837 8.618H455.155Z" fill="url(#paint0_linear_2_5982)"/>
        <defs>
            <linearGradient id="paint0_linear_2_5982" x1="-22.9803" y1="8.00005" x2="458" y2="8.00007" gradientUnits="userSpaceOnUse">
                <stop offset="0.0260229" stop-color="#13B0F5"/>
                <stop offset="1" stop-color="#E70FAA"/>
            </linearGradient>
        </defs>
    </g>
</svg>
